<?xml version="1.0" standalone="no"?>
<!DOCTYPE svg PUBLIC "-//W3C//DTD SVG 20010904//EN"
 "http://www.w3.org/TR/2001/REC-SVG-20010904/DTD/svg10.dtd">
<svg version="1.0" xmlns="http://www.w3.org/2000/svg"
 width="512.000000pt" height="512.000000pt" viewBox="0 0 512.000000 512.000000"
 preserveAspectRatio="xMidYMid meet">

<g transform="translate(0.000000,512.000000) scale(0.100000,-0.100000)"
fill="#000000" stroke="none">
<path d="M265 3935 c-23 -22 -25 -32 -25 -120 l0 -95 880 0 880 0 0 95 c0 88
-2 98 -25 120 l-24 25 -831 0 -831 0 -24 -25z"/>
<path d="M3145 3935 c-23 -22 -25 -32 -25 -120 l0 -95 880 0 880 0 0 95 c0 88
-2 98 -25 120 l-24 25 -831 0 -831 0 -24 -25z"/>
<path d="M19 3693 c-13 -16 -12 -17 4 -4 9 7 17 15 17 17 0 8 -8 3 -21 -13z"/>
<path d="M2899 3693 c-13 -16 -12 -17 4 -4 9 7 17 15 17 17 0 8 -8 3 -21 -13z"/>
<path d="M160 3520 l0 -40 960 0 960 0 0 40 0 40 -960 0 -960 0 0 -40z"/>
<path d="M3040 3520 l0 -40 960 0 960 0 0 40 0 40 -960 0 -960 0 0 -40z"/>
<path d="M2131 3174 c0 -11 3 -14 6 -6 3 7 2 16 -1 19 -3 4 -6 -2 -5 -13z"/>
<path d="M5011 3174 c0 -11 3 -14 6 -6 3 7 2 16 -1 19 -3 4 -6 -2 -5 -13z"/>
<path d="M101 3164 c0 -11 3 -14 6 -6 3 7 2 16 -1 19 -3 4 -6 -2 -5 -13z"/>
<path d="M2981 3164 c0 -11 3 -14 6 -6 3 7 2 16 -1 19 -3 4 -6 -2 -5 -13z"/>
<path d="M2101 2884 c0 -11 3 -14 6 -6 3 7 2 16 -1 19 -3 4 -6 -2 -5 -13z"/>
<path d="M4981 2884 c0 -11 3 -14 6 -6 3 7 2 16 -1 19 -3 4 -6 -2 -5 -13z"/>
<path d="M1019 2747 c-99 -37 -176 -114 -203 -204 l-7 -23 311 0 311 0 -6 23
c-22 73 -89 148 -168 189 -53 27 -184 35 -238 15z"/>
<path d="M3899 2747 c-99 -37 -176 -114 -203 -204 l-7 -23 311 0 311 0 -6 23
c-22 73 -89 148 -168 189 -53 27 -184 35 -238 15z"/>
<path d="M151 2684 c0 -11 3 -14 6 -6 3 7 2 16 -1 19 -3 4 -6 -2 -5 -13z"/>
<path d="M3031 2684 c0 -11 3 -14 6 -6 3 7 2 16 -1 19 -3 4 -6 -2 -5 -13z"/>
<path d="M2071 2594 c0 -11 3 -14 6 -6 3 7 2 16 -1 19 -3 4 -6 -2 -5 -13z"/>
<path d="M4951 2594 c0 -11 3 -14 6 -6 3 7 2 16 -1 19 -3 4 -6 -2 -5 -13z"/>
<path d="M19 2493 c-13 -16 -12 -17 4 -4 9 7 17 15 17 17 0 8 -8 3 -21 -13z"/>
<path d="M160 2240 l0 -120 974 -2 c935 -3 975 -4 995 -22 14 -12 69 -166 173
-477 l153 -459 105 0 105 0 153 459 c104 311 159 465 173 477 20 18 60 19 995
22 l974 2 0 120 0 120 -2400 0 -2400 0 0 -120z"/>
<path d="M261 1624 c0 -11 3 -14 6 -6 3 7 2 16 -1 19 -3 4 -6 -2 -5 -13z"/>
<path d="M3141 1624 c0 -11 3 -14 6 -6 3 7 2 16 -1 19 -3 4 -6 -2 -5 -13z"/>
<path d="M1921 1144 c0 -11 3 -14 6 -6 3 7 2 16 -1 19 -3 4 -6 -2 -5 -13z"/>
<path d="M4801 1144 c0 -11 3 -14 6 -6 3 7 2 16 -1 19 -3 4 -6 -2 -5 -13z"/>
</g>
</svg>
